<?xml version="1.0" standalone="no"?>
<!DOCTYPE svg PUBLIC "-//W3C//DTD SVG 20010904//EN"
 "http://www.w3.org/TR/2001/REC-SVG-20010904/DTD/svg10.dtd">
<svg version="1.0" xmlns="http://www.w3.org/2000/svg"
 width="1024.000000pt" height="1024.000000pt" viewBox="0 0 1024.000000 1024.000000"
 preserveAspectRatio="xMidYMid meet">
<metadata>
Created by potrace 1.11, written by Peter Selinger 2001-2013
</metadata>
<g transform="translate(0.000000,1024.000000) scale(0.100000,-0.100000)"
fill="#000000" stroke="none">
<path d="M4890 9153 c-19 -1 -84 -8 -145 -13 -834 -80 -1580 -477 -2176 -1160
-472 -541 -742 -1173 -821 -1920 -27 -263 -10 -733 37 -1007 104 -596 356
-1145 733 -1593 102 -122 350 -364 472 -461 421 -334 858 -552 1355 -674 175
-43 254 -53 265 -34 15 23 11 813 -3 832 -7 8 -50 25 -97 37 -330 84 -744 321
-1055 604 -419 381 -718 990 -796 1621 -16 129 -16 461 0 590 80 644 346 1219
751 1625 373 372 893 639 1395 716 146 22 433 22 573 1 486 -77 924 -264 1268
-543 436 -353 780 -924 902 -1494 148 -689 -4 -1514 -384 -2085 -127 -193
-327 -413 -499 -551 -129 -103 -338 -235 -490 -310 -128 -62 -321 -135 -416
-158 l-26 -6 4 88 c6 99 -10 300 -33 409 -48 231 -153 433 -300 574 -85 81
-140 119 -246 169 -84 40 -247 92 -260 83 -10 -5 -9 -783 2 -1693 8 -642 10
-704 29 -809 74 -402 267 -691 552 -825 83 -40 197 -73 220 -64 14 5 17 57 22
369 4 199 7 460 7 580 0 163 3 220 12 226 7 4 62 20 123 36 474 122 916 327
1273 591 303 224 589 523 801 836 332 491 510 984 571 1580 13 134 14 533 0
687 -43 486 -156 886 -369 1298 -277 538 -641 948 -1126 1269 -486 322 -985
509 -1525 571 -122 13 -490 19 -600 8z"/>
</g>
</svg>
