<svg xmlns="http://www.w3.org/2000/svg" xmlns:xlink="http://www.w3.org/1999/xlink" viewBox="0 0 1e3 1e3" enable-background="new 0 0 1000 1000"><g><path d="M5e2 10C229.4 10 10 229.4 10 5e2s219.4 490 490 490 490-219.4 490-490C990 229.4 770.6 10 5e2 10zM577.9 321.7v-.1s118.2-117.8 118.2-117.8c9.1-9.1 23.7-8.9 32.7.0l41.6 41.7L619.5 396.1l-41.7-41.5v-.1C568.3 344.9 569.2 330.4 577.9 321.7zm-374 406.2c-9.6-9.6-8.7-24.1.0-32.9v-.1s114.8-114.4 114.9-114.5c9.1-9.1 23.6-8.9 32.7.0l41.6 41.6L245.6 769.4 203.9 727.9zM643.7 628.7C423.5 854 281.5 805.8 257 780.4l147.2-147c20.6 20.5 47.1 2.3 97.9-39.1 33.6-27.4 72.4-64.2 105.9-105.7 23.6-29.1 44.4-59.7 22.9-81.2l151-150.5C803.9 284.4 852.6 414.9 643.7 628.7z"/></g></svg>